<svg xmlns="http://www.w3.org/2000/svg" viewBox="0 0 48 48"><style>.lg-badge{fill:#14304b}.lg-ring{fill:none;stroke:#ecd199;stroke-width:.9;opacity:.95}.lg-shoe{fill:#f1f7fc}.lg-spark{fill:#f5e3b6}</style><circle class="lg-badge" cx="24" cy="24" r="23"/><circle class="lg-ring" cx="24" cy="24" r="20"/><g class="lg-shoe" transform="translate(14.06,11.00) scale(0.04511)"><g transform="translate(-0.302515,598.594982) scale(0.100000,-0.100000)"
 >
<path d="M1810 5975 c-132 -30 -252 -112 -299 -203 -30 -58 -60 -176 -68 -258
-5 -64 -4 -73 13 -82 35 -18 312 -42 492 -42 181 0 336 10 500 31 92 12 92 12
92 48 -1 123 -70 293 -148 362 -54 48 -180 111 -267 134 -87 23 -236 28 -315
10z"/>
<path d="M2378 5381 c-86 -9 -159 -19 -163 -23 -8 -8 90 -75 165 -113 171 -87
386 -112 407 -48 5 14 -220 204 -239 202 -7 -1 -84 -9 -170 -18z"/>
<path d="M1440 5343 c0 -134 -44 -262 -105 -309 -32 -24 -36 -25 -57 -10 -35
24 -53 20 -100 -26 -24 -22 -79 -59 -123 -81 -125 -61 -204 -119 -296 -214
-246 -256 -370 -558 -544 -1333 -25 -113 -59 -245 -74 -295 -16 -49 -31 -109
-35 -132 -6 -39 -3 -46 30 -83 36 -40 36 -40 24 -127 -6 -48 -11 -146 -11
-218 0 -199 33 -298 130 -396 66 -65 153 -110 261 -132 41 -9 173 -21 292 -27
641 -32 902 -114 1124 -353 113 -121 183 -255 249 -472 20 -65 37 -121 39
-122 4 -4 657 267 668 276 4 4 3 34 -2 66 -5 33 -23 146 -40 250 -75 472 -136
666 -238 755 -127 113 -459 263 -917 416 -278 93 -262 81 -218 168 25 49 25
49 -29 43 -133 -15 -336 -19 -413 -7 -281 42 -354 187 -385 762 -9 174 -5 247
15 301 4 9 11 17 15 17 4 0 10 -111 13 -247 8 -323 37 -535 88 -635 66 -128
231 -188 486 -175 152 8 265 26 515 82 371 84 333 81 456 38 91 -31 121 -36
197 -37 101 -1 131 10 141 52 4 15 17 38 29 52 12 14 26 38 29 55 4 16 17 36
28 43 17 12 19 22 14 59 -6 42 -5 43 19 37 23 -6 25 -4 25 32 0 22 -7 47 -14
56 -21 29 -105 60 -172 66 -60 4 -62 6 -61 31 2 23 -1 26 -28 23 -29 -3 -81
-26 -190 -85 -72 -39 -206 -53 -369 -38 -105 9 -507 66 -545 77 -10 3 -12 16
-7 52 27 188 38 288 45 435 5 92 11 170 14 173 11 12 27 -73 27 -146 0 -41
-10 -161 -21 -266 -12 -105 -19 -199 -16 -208 4 -9 18 -16 34 -16 15 0 87 -9
158 -20 371 -57 549 -62 634 -17 144 77 169 87 231 94 65 8 65 8 152 182 48
95 92 179 97 185 6 7 39 22 75 35 69 24 100 55 94 94 -4 31 -33 32 -130 8
-116 -30 -199 -71 -234 -116 -69 -90 -96 -114 -152 -135 -76 -29 -282 -75
-417 -94 -60 -9 -124 -18 -141 -21 -31 -5 -31 -5 -59 112 -28 116 -28 119 -17
263 11 147 8 179 -22 281 -13 43 -14 63 -6 84 8 22 6 34 -11 65 -22 38 -22 38
-1 68 27 37 65 62 94 62 13 0 57 -21 98 -45 45 -28 86 -45 105 -45 35 0 67 28
84 72 6 15 23 35 38 45 46 30 89 78 97 107 7 26 9 28 58 24 47 -3 53 -1 65 22
7 15 13 62 13 114 0 85 1 90 35 136 19 26 35 50 35 54 0 3 -19 15 -42 27 -24
12 -86 47 -138 79 -95 57 -95 57 -325 63 -209 6 -363 17 -437 33 -27 5 -28 5
-28 -43z"/>
<path d="M2726 4560 c-89 -27 -106 -36 -106 -61 0 -19 4 -21 38 -15 20 3 67 9
103 12 62 6 67 5 83 -17 9 -13 16 -35 16 -50 0 -14 9 -38 20 -52 20 -25 20
-25 -15 -102 -19 -42 -35 -78 -35 -81 0 -2 10 -4 23 -4 37 0 67 -27 67 -62 0
-65 -51 -111 -160 -143 -29 -9 -40 -22 -40 -51 0 -13 -8 -24 -20 -27 -10 -3
-22 -17 -26 -33 -4 -16 -13 -35 -21 -42 -16 -16 -17 -44 -2 -59 8 -8 8 -13 0
-17 -6 -4 -11 -18 -11 -31 0 -32 48 -70 110 -86 53 -14 62 -32 17 -37 -16 -2
-27 -10 -27 -18 0 -11 6 -13 23 -9 73 22 127 67 127 105 0 9 9 25 21 36 14 13
19 28 17 51 -2 23 4 38 20 53 24 23 27 41 11 71 -8 16 -7 23 6 33 33 24 9 106
-31 106 -28 0 -22 24 35 145 60 127 60 127 103 120 46 -8 78 -29 78 -52 0 -16
77 -54 95 -47 12 5 55 77 87 146 15 34 15 37 0 51 -29 25 -60 37 -96 37 -40 0
-93 39 -98 72 -6 39 -53 63 -126 64 -37 1 -101 5 -142 8 -59 4 -90 1 -144 -14z"/>
<path d="M2576 3656 c-14 -32 -26 -64 -26 -71 0 -13 115 -39 130 -30 5 3 13
19 19 35 10 29 8 32 -24 47 -19 9 -35 19 -35 22 0 3 -9 17 -19 31 -19 24 -19
24 -45 -34z"/>
<path d="M4359 3402 c-10 -1 -20 -13 -23 -25 -11 -43 -8 -48 32 -45 33 3 37 6
40 34 3 33 -13 44 -49 36z"/>
<path d="M3501 3338 c-8 -29 -16 -58 -18 -63 -3 -10 146 -9 156 1 2 2 -2 17
-9 34 -14 33 -52 65 -91 75 -23 6 -26 2 -38 -47z"/>
<path d="M3842 3333 c2 -10 13 -19 26 -21 16 -3 22 -10 22 -30 0 -52 -9 -55
-125 -51 -107 4 -107 4 -129 -71 -49 -166 -102 -237 -252 -335 -82 -55 -115
-82 -127 -108 -31 -64 -28 -67 68 -82 89 -14 188 -78 251 -161 26 -34 29 -35
87 -32 60 3 60 3 79 71 23 84 45 129 96 194 32 40 61 61 142 102 92 48 100 54
93 74 -4 12 -7 93 -6 181 2 158 2 158 -42 153 -45 -5 -45 -5 -45 39 0 30 4 44
13 44 7 0 22 7 33 15 31 24 0 35 -99 35 -79 0 -88 -2 -85 -17z"/>
<path d="M3492 3234 c-37 -26 -28 -44 23 -44 33 0 45 -4 45 -15 0 -11 -13 -15
-54 -15 -49 0 -54 -2 -60 -25 -9 -37 0 -45 49 -45 36 0 43 -3 38 -16 -4 -12
-16 -14 -58 -9 -48 6 -54 5 -65 -14 -14 -27 -7 -38 31 -46 29 -7 48 -29 35
-42 -4 -4 -26 3 -51 15 -43 21 -44 21 -67 2 -23 -18 -23 -18 5 -40 15 -12 27
-28 27 -36 0 -19 -6 -18 -44 11 -39 30 -48 31 -69 7 -16 -17 -15 -20 8 -42 14
-13 25 -29 25 -37 0 -23 -28 -14 -50 17 -24 33 -37 37 -65 16 -18 -13 -18 -14
3 -48 20 -33 20 -48 0 -48 -5 0 -16 16 -24 35 -17 41 -23 43 -53 11 -19 -21
-22 -32 -19 -102 3 -79 3 -79 54 -82 52 -3 52 -3 58 32 10 52 47 90 145 147
57 34 102 70 134 108 62 72 126 200 134 269 6 52 6 52 -53 52 -38 0 -68 -6
-82 -16z"/>
<path d="M4081 3126 c-14 -117 -10 -196 11 -241 19 -42 31 -29 22 23 -11 59
-11 181 -1 247 6 37 4 55 -6 69 -12 16 -15 5 -26 -98z"/>
<path d="M2266 3057 c-3 -14 -9 -32 -12 -40 -7 -20 76 -70 108 -65 22 3 68 59
68 83 0 7 -26 16 -62 23 -35 5 -70 13 -79 17 -12 4 -18 -1 -23 -18z"/>
<path d="M2407 2893 c-12 -11 -8 -23 7 -23 22 0 26 -24 26 -156 0 -102 -3
-126 -15 -130 -31 -12 -16 -43 30 -63 24 -11 83 -47 130 -79 65 -46 110 -68
186 -92 73 -24 97 -36 89 -44 -7 -7 -27 -6 -71 5 -39 10 -58 12 -55 5 38 -82
77 -192 87 -242 13 -64 13 -64 236 -64 l223 0 0 -472 c0 -472 0 -472 -22 -496
-21 -22 -23 -35 -26 -159 -4 -135 -4 -135 -156 -342 -84 -113 -155 -211 -159
-217 -3 -6 18 -36 48 -67 l53 -57 108 145 c59 80 109 145 110 145 2 0 14 -11
28 -24 26 -23 26 -23 26 -225 l0 -201 75 0 75 0 0 201 c0 202 0 202 27 227 27
25 27 25 65 -19 21 -24 89 -115 151 -203 168 -238 143 -216 249 -216 76 0 89
2 84 15 -3 8 -115 164 -249 347 -134 183 -249 343 -256 355 -6 13 -11 71 -11
143 0 116 -1 122 -25 144 -25 23 -25 23 -25 500 l0 476 335 0 c383 0 349 -9
350 97 0 38 -5 67 -13 75 -10 10 -97 13 -400 14 -372 0 -414 3 -597 35 -88 15
-205 51 -205 62 0 5 14 6 33 3 91 -19 294 -18 437 3 80 11 170 22 200 23 55 3
55 3 58 -39 3 -42 3 -42 55 -53 57 -13 409 -9 440 4 14 7 17 22 17 102 0 94 0
94 -42 95 -43 0 -43 0 -11 16 48 24 63 66 63 170 0 78 -21 217 -35 231 -12 12
-163 -55 -218 -97 -94 -71 -167 -196 -167 -284 0 -27 0 -27 138 -28 75 -1 148
-5 162 -9 15 -5 -39 -8 -135 -9 -88 -1 -203 -8 -255 -15 -367 -55 -633 -59
-815 -11 -146 38 -406 167 -384 190 3 2 50 -18 104 -45 226 -111 466 -176 620
-167 129 7 385 49 385 63 0 20 -80 103 -124 129 -57 33 -143 53 -256 59 -95 5
-95 5 -101 33 -4 15 -7 49 -8 74 -1 46 -1 46 -62 15 -54 -26 -72 -30 -148 -30
-47 0 -127 4 -177 8 -105 10 -146 0 -195 -45 -31 -29 -31 -29 -27 77 2 88 6
107 21 115 9 6 17 14 17 19 0 11 -93 14 -103 3z"/>
<path d="M45 2018 c-53 -47 -57 -291 -5 -343 18 -17 32 -20 95 -18 41 1 75 -2
75 -6 0 -18 -140 -1551 -146 -1593 -6 -48 -6 -48 75 -48 45 0 81 1 81 3 1 1 9
100 19 220 10 119 20 219 22 222 13 12 282 17 660 10 l426 -7 12 -162 c23
-316 12 -286 102 -286 44 0 79 4 79 8 0 16 -139 1547 -145 1595 -6 47 -6 47
74 47 74 0 82 2 96 24 23 34 31 119 13 134 -20 16 -228 80 -285 87 -26 3 -187
10 -358 15 -284 8 -318 11 -409 34 -55 14 -128 39 -164 56 -60 28 -72 30 -178
30 -103 0 -115 -2 -139 -22z m1189 -415 c6 -44 66 -665 66 -678 0 -3 -225 -5
-501 -5 -500 0 -500 0 -495 53 9 72 56 634 56 658 0 18 11 19 434 19 434 0
434 0 440 -47z m77 -825 c0 -13 4 -62 7 -110 l7 -88 -529 0 -529 0 6 68 c4 37
7 86 7 110 0 42 0 42 515 42 515 0 515 0 516 -22z"/>
<path d="M1855 1618 c-9 -41 -165 -1028 -165 -1048 0 -10 13 -28 29 -39 29
-21 29 -21 6 -78 -33 -83 -48 -171 -49 -301 -1 -89 2 -115 14 -122 31 -19 151
-33 244 -28 81 4 101 9 120 27 29 27 87 28 203 0 164 -38 387 -36 585 6 133
28 171 63 143 133 -32 74 -62 93 -202 123 -54 12 -127 34 -163 51 -78 35 -222
127 -215 138 2 4 18 10 35 13 16 4 30 10 30 14 0 5 22 137 49 296 29 172 44
287 38 287 -6 0 -86 -29 -179 -65 -93 -36 -170 -65 -172 -65 -2 0 -9 28 -15
63 -33 173 -93 335 -164 445 -42 63 -142 172 -159 172 -4 0 -10 -10 -13 -22z"/>
</g></g><path class="lg-spark" d="M37.5 16.5 L38.4 18.8 L40.7 19.7 L38.4 20.6 L37.5 22.9 L36.6 20.6 L34.3 19.7 L36.6 18.8 Z"/></svg>
